<?xml version="1.0" encoding="iso-8859-1"?>
<svg xmlns="http://www.w3.org/2000/svg" xmlns:xlink="http://www.w3.org/1999/xlink" version="1.1" viewBox="0 0 463 463" enable-background="new 0 0 463 463" width="512px" height="512px">
  <path d="m439.5,100h-24.5v-8.5c0-8.547-6.953-15.5-15.5-15.5h-24c-8.547,0-15.5,6.953-15.5,15.5v8.5h-41v-0.5c0-10.336-6.71-19.128-16-22.266v-25.734c0-12.958-10.542-23.5-23.5-23.5h-96c-12.958,0-23.5,10.542-23.5,23.5v25.734c-9.29,3.138-16,11.93-16,22.266v0.5h-41v-8.5c0-8.547-6.953-15.5-15.5-15.5h-24c-8.547,0-15.5,6.953-15.5,15.5v8.5h-24.5c-12.958,0-23.5,10.542-23.5,23.5v288c0,12.958 10.542,23.5 23.5,23.5h416c12.958,0 23.5-10.542 23.5-23.5v-288c0-12.958-10.542-23.5-23.5-23.5zm-23.5,15v305h-369v-305h369zm-41-23.5c0-0.275 0.224-0.5 0.5-0.5h24c0.276,0 0.5,0.225 0.5,0.5v8.5h-25v-8.5zm-71,8.5h-17v-0.5c0-4.687 3.813-8.5 8.5-8.5s8.5,3.813 8.5,8.5v0.5zm-120.5-57h96c4.687,0 8.5,3.813 8.5,8.5v25.734c-9.29,3.138-16,11.93-16,22.266v0.5h-81v-0.5c0-10.336-6.71-19.128-16-22.266v-25.734c0-4.687 3.813-8.5 8.5-8.5zm-24.5,56.5c0-4.687 3.813-8.5 8.5-8.5s8.5,3.813 8.5,8.5v0.5h-17v-0.5zm-96-8c0-0.275 0.224-0.5 0.5-0.5h24c0.276,0 0.5,0.225 0.5,0.5v8.5h-25v-8.5zm-48,320v-288c0-4.687 3.813-8.5 8.5-8.5h8.5v305h-8.5c-4.687,0-8.5-3.813-8.5-8.5zm433,0c0,4.687-3.813,8.5-8.5,8.5h-8.5v-305h8.5c4.687,0 8.5,3.813 8.5,8.5v288z" fill="#368fcd"/>
</svg>
